<svg xmlns="http://www.w3.org/2000/svg" width="56" height="44" viewBox="0 0 56 44">
  <g fill="none" fill-rule="evenodd">
    <path fill="#FFF" fill-rule="nonzero" d="M10.2533636,43.1718216 L10.2533636,40.3056085 C10.2871563,39.8179678 10.1094853,39.3393647 9.76567794,38.9918997 C9.42187054,38.6444348 8.94517431,38.4617094 8.45720333,38.4903401 C7.81413694,38.4481819 7.19909316,38.7593647 6.85212396,39.3024339 C6.53578762,38.7755567 5.95656531,38.4639498 5.34258503,38.4903401 C4.80799681,38.4633151 4.299074,38.7214116 4.0050189,39.1686772 L4.0050189,38.6049887 L3.01139834,38.6049887 L3.01139834,43.1718216 L4.01457294,43.1718216 L4.01457294,40.6591081 C3.97136878,40.3429123 4.07155214,40.0239348 4.28778384,39.7892218 C4.50401554,39.5545087 4.81372534,39.4285595 5.13239607,39.4457445 C5.79162509,39.4457445 6.12601663,39.8756765 6.12601663,40.649554 L6.12601663,43.1909297 L7.12919123,43.1909297 L7.12919123,40.6591081 C7.08775992,40.3432719 7.18855586,40.0253279 7.40438666,39.79105 C7.62021745,39.5567721 7.92884707,39.430297 8.24701436,39.4457445 C8.92535147,39.4457445 9.25018896,39.8756765 9.25018896,40.649554 L9.25018896,43.1909297 L10.2533636,43.1718216 Z M25.0955707,38.6049887 L23.4618292,38.6049887 L23.4618292,37.2196523 L22.4586546,37.2196523 L22.4586546,38.6049887 L21.5510204,38.6049887 L21.5510204,39.5126228 L22.4777627,39.5126228 L22.4777627,41.6145125 C22.4777627,42.6750113 22.8885865,43.3055782 24.0637339,43.3055782 C24.5027702,43.307053 24.9332989,43.1845179 25.3057596,42.9520786 L25.0191383,42.1017687 C24.7526776,42.2607049 24.4502575,42.3494586 24.1401663,42.3597279 C23.6624641,42.3597279 23.4809373,42.0539985 23.4809373,41.5954044 L23.4809373,39.5126228 L25.1051247,39.5126228 L25.0955707,38.6049887 Z M33.5700076,38.4903401 C33.0765017,38.4758263 32.614595,38.7324411 32.366198,39.1591232 L32.366198,38.6049887 L31.3821315,38.6049887 L31.3821315,43.1718216 L32.3757521,43.1718216 L32.3757521,40.6113379 C32.3757521,39.8565684 32.7005896,39.4361905 33.3311565,39.4361905 C33.5436786,39.4332835 33.7546944,39.4722402 33.9521693,39.550839 L34.2578987,38.5954346 C34.0309768,38.5142558 33.7919026,38.4722563 33.5508995,38.471232 L33.5700076,38.4903401 Z M20.7580348,38.9680423 C20.1956002,38.6336398 19.5489466,38.4678312 18.8949962,38.4903401 C17.7389569,38.4903401 16.9841875,39.0444747 16.9841875,39.9521088 C16.9841875,40.6973243 17.538322,41.1559184 18.5606047,41.299229 L19.0383069,41.3661073 C19.5828874,41.4425397 19.8408466,41.5858503 19.8408466,41.8438095 C19.8408466,42.1973091 19.4777929,42.3979441 18.7994558,42.3979441 C18.2538255,42.4137379 17.7187517,42.2454757 17.2803628,41.9202419 L16.8026606,42.6941194 C17.3814512,43.098251 18.0746964,43.3058897 18.7803477,43.2864701 C20.0988057,43.2864701 20.8631293,42.6654573 20.8631293,41.7960393 C20.8631293,40.9266213 20.2612245,40.5731217 19.2676039,40.429811 L18.7899017,40.3629327 C18.3599698,40.3056085 18.0160242,40.2196221 18.0160242,39.9138927 C18.0160242,39.6081633 18.3408617,39.3788662 18.8854422,39.3788662 C19.3887853,39.3847133 19.8822136,39.5195837 20.3185488,39.770582 L20.7580348,38.9680423 Z M47.3708239,38.4903401 C46.877318,38.4758263 46.4154114,38.7324411 46.1670144,39.1591232 L46.1670144,38.6049887 L45.1829478,38.6049887 L45.1829478,43.1718216 L46.1765684,43.1718216 L46.1765684,40.6113379 C46.1765684,39.8565684 46.5014059,39.4361905 47.1319728,39.4361905 C47.3444949,39.4332835 47.5555107,39.4722402 47.7529856,39.550839 L48.058715,38.5954346 C47.8317931,38.5142558 47.5927189,38.4722563 47.3517158,38.471232 L47.3708239,38.4903401 Z M34.5684051,40.8788511 C34.5445094,41.5277784 34.7951727,42.1567344 35.2588681,42.6113377 C35.7225636,43.0659411 36.3563593,43.3041019 37.0046863,43.2673621 C37.6012784,43.2977152 38.1875887,43.1034147 38.6479819,42.7227816 L38.1702797,41.9202419 C37.8267979,42.1821713 37.4079542,42.3262535 36.9760242,42.3310658 C36.2144239,42.2694437 35.627752,41.6333862 35.627752,40.8692971 C35.627752,40.1052079 36.2144239,39.4691504 36.9760242,39.4075283 C37.4079542,39.4123406 37.8267979,39.5564228 38.1702797,39.8183522 L38.6479819,39.0158125 C38.1875887,38.6351794 37.6012784,38.4408789 37.0046863,38.471232 C36.3563593,38.4344922 35.7225636,38.672653 35.2588681,39.1272564 C34.7951727,39.5818597 34.5445094,40.2108157 34.5684051,40.859743 L34.5684051,40.8788511 Z M43.8740438,40.8788511 L43.8740438,38.6049887 L42.8804233,38.6049887 L42.8804233,39.1591232 C42.5381035,38.7186579 42.0047838,38.4697754 41.4473167,38.4903401 C40.1281785,38.4903401 39.0588057,39.5597129 39.0588057,40.8788511 C39.0588057,42.1979893 40.1281785,43.2673621 41.4473167,43.2673621 C42.0047838,43.2879268 42.5381035,43.0390443 42.8804233,42.598579 L42.8804233,43.1527135 L43.8740438,43.1527135 L43.8740438,40.8788511 Z M40.1766289,40.8788511 C40.2208139,40.1291781 40.8561325,39.5523239 41.6065781,39.5804912 C42.3570237,39.6086585 42.9473122,40.2315146 42.9351756,40.9823906 C42.9230389,41.7332665 42.3129291,42.3367203 41.5619652,42.3406198 C41.1795833,42.3454581 40.8125577,42.1903719 40.5495052,41.9128062 C40.2864527,41.6352405 40.1512818,41.2604227 40.1766289,40.8788511 Z M28.1863039,38.4903401 C26.8671657,38.5088081 25.8127641,39.5931521 25.831232,40.9122902 C25.8497,42.2314284 26.934044,43.28583 28.2531822,43.2673621 C28.9404711,43.3026398 29.6163557,43.0813174 30.1496599,42.6463492 L29.6719577,41.9106878 C29.2947459,42.2132064 28.8274288,42.3813061 28.3439456,42.38839 C27.6610065,42.4471236 27.0553823,41.9516129 26.9777173,41.2705669 L30.3694029,41.2705669 C30.3694029,41.1463643 30.3694029,41.0221618 30.3694029,40.8884051 C30.3694029,39.4552986 29.4808768,38.4998942 28.2006349,38.4998942 L28.1863039,38.4903401 Z M28.1863039,39.3788662 C28.4865889,39.3724642 28.7771116,39.4856469 28.9939258,39.6935018 C29.21074,39.9013568 29.3360748,40.1868474 29.3423432,40.4871353 L26.9538322,40.4871353 C26.9898167,39.8493185 27.5287364,39.3570769 28.1671958,39.3788662 L28.1863039,39.3788662 Z M53.0793651,40.8884051 L53.0793651,36.7706122 L52.1239607,36.7706122 L52.1239607,39.1591232 C51.7816409,38.7186579 51.2483212,38.4697754 50.6908541,38.4903401 C49.3717159,38.4903401 48.3023432,39.5597129 48.3023432,40.8788511 C48.3023432,42.1979893 49.3717159,43.2673621 50.6908541,43.2673621 C51.2483212,43.2879268 51.7816409,43.0390443 52.1239607,42.598579 L52.1239607,43.1527135 L53.0793651,43.1527135 L53.0793651,40.8884051 Z M54.7369917,42.5078156 C54.7990991,42.5070547 54.8607589,42.518413 54.9185185,42.5412547 C54.9733791,42.5636418 55.0235961,42.5960398 55.0666062,42.6367952 C55.1085815,42.6779833 55.1425908,42.726568 55.1669237,42.7801058 C55.2158218,42.8928661 55.2158218,43.0208451 55.1669237,43.1336054 C55.1425908,43.1871433 55.1085815,43.235728 55.0666062,43.2769161 C55.0235961,43.3176715 54.9733791,43.3500695 54.9185185,43.3724565 C54.8613291,43.3976913 54.799501,43.4107077 54.7369917,43.4106727 C54.5521447,43.4092794 54.3846924,43.3013658 54.3070597,43.1336054 C54.2587277,43.0207283 54.2587277,42.8929829 54.3070597,42.7801058 C54.3313926,42.726568 54.3654019,42.6779833 54.4073772,42.6367952 C54.4503873,42.5960398 54.5006042,42.5636418 54.5554649,42.5412547 C54.6176855,42.5165042 54.6844147,42.5051114 54.7513228,42.5078156 L54.7369917,42.5078156 Z M54.7369917,43.3151323 C54.7846709,43.3154219 54.8318754,43.3056555 54.8755253,43.2864701 C54.9166251,43.2681204 54.9538992,43.2421906 54.9853968,43.2100378 C55.1092636,43.0748924 55.1092636,42.867481 54.9853968,42.7323356 C54.9539743,42.7000941 54.9166821,42.6741517 54.8755253,42.6559033 C54.8318324,42.6368532 54.7846568,42.6270927 54.7369917,42.6272411 C54.6893678,42.6274928 54.642272,42.6372368 54.598458,42.6559033 C54.5555387,42.6735018 54.5165618,42.6994864 54.4838095,42.7323356 C54.3599428,42.867481 54.3599428,43.0748924 54.4838095,43.2100378 C54.5166423,43.2427888 54.5555983,43.2687596 54.598458,43.2864701 C54.6466533,43.307254 54.6988719,43.317045 54.7513228,43.3151323 L54.7369917,43.3151323 Z M54.7656538,42.7466667 C54.810248,42.7445041 54.8541916,42.7580252 54.8898564,42.7848828 C54.9195228,42.8094348 54.9355302,42.8467853 54.9328496,42.8852003 C54.9342363,42.9172805 54.9221063,42.948472 54.8994104,42.9711867 C54.8717219,42.9963358 54.8363999,43.0114738 54.799093,43.0141799 L54.9376266,43.1718216 L54.8277551,43.1718216 L54.6987755,43.0141799 L54.6557823,43.0141799 L54.6557823,43.1718216 L54.5650189,43.1718216 L54.5650189,42.7514437 L54.7656538,42.7466667 Z M54.6605593,42.827876 L54.6605593,42.9425246 L54.7656538,42.9425246 C54.7843552,42.9481002 54.8042767,42.9481002 54.8229781,42.9425246 C54.8297915,42.9290033 54.8297915,42.9130526 54.8229781,42.8995314 C54.8297915,42.8860101 54.8297915,42.8700594 54.8229781,42.8565382 C54.8042767,42.8509625 54.7843552,42.8509625 54.7656538,42.8565382 L54.6605593,42.827876 Z M49.4058352,40.8884051 C49.4500203,40.1387321 50.0853388,39.561878 50.8357844,39.5900452 C51.58623,39.6182125 52.1765186,40.2410687 52.1643819,40.9919446 C52.1522453,41.7428206 51.5421355,42.3462743 50.7911716,42.3501738 C50.4087897,42.3550121 50.041764,42.199926 49.7787115,41.9223602 C49.515659,41.6447945 49.3804881,41.2699767 49.4058352,40.8884051 Z M15.8568103,40.8884051 L15.8568103,38.6049887 L14.8631897,38.6049887 L14.8631897,39.1591232 C14.5208699,38.7186579 13.9875503,38.4697754 13.4300831,38.4903401 C12.110945,38.4903401 11.0415722,39.5597129 11.0415722,40.8788511 C11.0415722,42.1979893 12.110945,43.2673621 13.4300831,43.2673621 C13.9875503,43.2879268 14.5208699,43.0390443 14.8631897,42.598579 L14.8631897,43.1527135 L15.8568103,43.1527135 L15.8568103,40.8884051 Z M12.1593953,40.8884051 C12.2035804,40.1387321 12.8388989,39.561878 13.5893445,39.5900452 C14.3397901,39.6182125 14.9300787,40.2410687 14.917942,40.9919446 C14.9058054,41.7428206 14.2956956,42.3462743 13.5447317,42.3501738 C13.1607019,42.3577131 12.7911211,42.2038092 12.5259499,41.9259244 C12.2607787,41.6480395 12.1243388,41.2716614 12.1498413,40.8884051 L12.1593953,40.8884051 Z"/>
    <g transform="translate(.054 .054)">
      <rect width="15.048" height="27.043" x="20.374" y="3.75" fill="#FF5F00"/>
      <path fill="#EB001B" d="M21.3294029,17.2737113 C21.3237768,11.9958149 23.7460236,7.00862885 27.897808,3.74996221 C20.8468235,-1.79135848 10.721327,-0.984217206 4.63724525,5.60414884 C-1.44683647,12.1925149 -1.44683647,22.3501306 4.63724525,28.9384967 C10.721327,35.5268627 20.8468235,36.334004 27.897808,30.7926833 C23.7473445,27.5350511 21.3252456,22.5499313 21.3294029,17.2737113 Z"/>
      <path fill="#F79E1B" d="M55.7239607,17.2737113 C55.7238072,23.8580623 51.9641678,29.8643409 46.0417758,32.7416575 C40.1193838,35.6189742 33.073993,34.862178 27.897808,30.7926833 C32.0464606,27.5322855 34.4687418,22.5478284 34.4687418,17.2713228 C34.4687418,11.9948171 32.0464606,7.01036001 27.897808,3.74996221 C33.073993,-0.319532524 40.1193838,-1.07632869 46.0417758,1.80098796 C51.9641678,4.6783046 55.7238072,10.6845832 55.7239607,17.2689342 L55.7239607,17.2737113 Z"/>
      <path fill="#F79E1B" fill-rule="nonzero" d="M54.0806652,28.2505949 L54.0806652,27.4278998 L54.3051852,27.4278998 L54.3051852,27.2576871 L53.7367196,27.2576871 L53.7367196,27.4278998 L53.9803477,27.4278998 L53.9803477,28.2505949 L54.0806652,28.2505949 Z M55.1841572,28.2505949 L55.1841572,27.2576871 L55.0121844,27.2576871 L54.8115495,27.9669069 L54.6109146,27.2576871 L54.4580499,27.2576871 L54.4580499,28.2505949 L54.5822525,28.2505949 L54.5822525,27.505914 L54.7685563,28.1513041 L54.8975359,28.1513041 L55.0838398,27.505914 L55.0838398,28.2576871 L55.1841572,28.2505949 Z"/>
    </g>
  </g>
</svg>
