<svg xmlns="http://www.w3.org/2000/svg" width="101" height="37" viewBox="0 0 101 37">
  <path fill="#FF8500" d="M24.9208148,32.3325825 C28.052835,32.3325825 31.4507879,33.4061751 35.2119327,36.738835 C35.5887273,37.0727811 36.0903266,36.657899 35.7618215,36.2433569 C32.0656296,31.5766128 28.6469327,30.6876768 25.2374175,29.936468 C21.0671717,29.0176061 18.9220269,26.6711414 17.4270909,24.0947912 C17.129532,23.5819697 16.9962256,23.6724276 16.9693603,24.331138 C16.9367138,25.1370976 16.9921448,26.2035488 17.1727205,27.2526566 C17.0043872,27.2604781 16.8350337,27.2580976 16.665,27.2580976 C10.6988586,27.2580976 5.86242088,22.4216599 5.86242088,16.4555185 C5.86242088,10.4893771 10.6988586,5.65293939 16.665,5.65293939 C22.6311414,5.65293939 27.4679192,10.4893771 27.4679192,16.4555185 C27.4679192,16.8799226 27.4471751,17.2995657 27.3995657,17.7113872 C26.6102694,17.5692391 25.057862,17.5532559 23.9686263,17.6474545 C23.5588451,17.6828215 23.6163165,17.8735993 23.9261178,17.9297104 C27.497165,18.5748182 29.9507508,20.7879764 30.5115219,24.8038316 C30.5244444,24.89633 30.6451684,24.9238754 30.6931178,24.8439596 C32.1625488,22.3920741 33.006596,19.5222458 33.006596,16.4555185 C33.006596,7.43047138 25.6903872,0.113922559 16.665,0.113922559 C7.63995286,0.113922559 0.32340404,7.43047138 0.32340404,16.4555185 C0.32340404,25.4809057 7.63995286,32.7981347 16.665,32.7981347 C19.0594141,32.7981347 21.4347845,32.3325825 24.9208148,32.3325825 Z M26.1372357,26.3990875 C26.8642997,27.0139293 27.0856835,27.744734 26.7010673,28.2602761 C26.487165,28.5428721 26.1406364,28.6986229 25.7250741,28.6986229 C25.3169933,28.6986229 24.901431,28.547633 24.6130539,28.2959832 C23.951963,27.7182088 23.7577845,26.7816633 24.18933,26.2494579 C24.3580034,26.0413367 24.6320976,25.926734 24.9606027,25.926734 C25.3595017,25.926734 25.7774444,26.0947273 26.1372357,26.3990875 Z M29.492,24.8381785 C29.5987811,25.5543603 29.3722963,25.850899 29.1451313,25.850899 C28.8972222,25.850899 28.5860606,25.5604815 28.2187879,24.9878081 C27.8566162,24.4222761 27.7239899,23.7734276 27.9035455,23.4456027 C28.022229,23.2286397 28.2704781,23.1344411 28.5836801,23.2527845 C29.1900202,23.4819899 29.4280673,24.4103737 29.492,24.8381785 Z M52.1445657,21.0957374 L50.2605926,18.8298687 C50.0633535,18.5921616 50.232367,18.2320303 50.5411481,18.2320303 L54.4825286,18.2320303 C54.6702458,17.6732997 54.7763468,17.0764815 54.7763468,16.4565387 C54.7763468,13.6179966 52.6635084,11.170532 49.7637542,11.170532 C46.864,11.170532 44.7511616,13.6179966 44.7511616,16.4565387 C44.7511616,19.2950808 46.864,21.7078586 49.7637542,21.7078586 C50.6424882,21.7078586 51.4474276,21.4834141 52.1445657,21.0957374 Z M60.6690337,24.9252357 C60.8737542,25.1517205 60.7057609,25.5162727 60.3973199,25.5162727 L56.0961481,25.5162727 C55.9213535,25.5162727 55.7550606,25.4383973 55.6431785,25.3037306 L54.9140741,24.427037 C53.4293401,25.3897677 51.66133,25.9515589 49.7637542,25.9515589 C44.5280774,25.9515589 40.268734,21.6922155 40.268734,16.4565387 C40.268734,11.220862 44.5280774,6.96117845 49.7637542,6.96117845 C54.999431,6.96117845 59.2587744,11.220862 59.2587744,16.4565387 C59.2587744,18.3439125 58.7031044,20.1027407 57.7498956,21.5823737 L60.6690337,24.9252357 Z M100.401822,7.39816498 L96.8916465,7.39816498 C96.6338754,7.39816498 96.424734,7.6073064 96.424734,7.86541751 L96.424734,25.0476599 C96.424734,25.305431 96.6338754,25.5145724 96.8916465,25.5145724 L100.401822,25.5145724 C100.659593,25.5145724 100.868734,25.305431 100.868734,25.0476599 L100.868734,7.86541751 C100.868734,7.6073064 100.659593,7.39816498 100.401822,7.39816498 Z M94.4951919,7.39816498 L90.5677542,7.39816498 C90.3623535,7.39816498 90.1810976,7.53147138 90.1212458,7.72632997 L87.0133704,17.8804007 L83.597734,7.71510774 C83.5341414,7.5260303 83.3559461,7.39816498 83.1549663,7.39816498 L80.4143636,7.39816498 C80.2133838,7.39816498 80.0348485,7.5260303 79.9712559,7.71510774 L76.5556195,17.8804007 L73.4477441,7.72632997 C73.3878923,7.53147138 73.2066364,7.39816498 73.0012357,7.39816498 L69.073798,7.39816498 C68.9238283,7.39816498 68.7827003,7.46991919 68.694963,7.5906431 C68.6072256,7.711367 68.5834209,7.86677778 68.6310303,8.00790572 L74.3992525,25.19967 C74.4628451,25.3887475 74.6413805,25.5162727 74.8423603,25.5162727 L77.9594175,25.5162727 C78.1603973,25.5162727 78.3385926,25.3887475 78.4025253,25.2000101 L81.7844949,15.1561212 L85.1664646,25.2000101 C85.2303973,25.3887475 85.4085926,25.5162727 85.6095724,25.5162727 L88.7266296,25.5162727 C88.9276094,25.5162727 89.1061448,25.3887475 89.1697374,25.19967 L94.9379596,8.00790572 C94.985569,7.86677778 94.9617643,7.711367 94.8740269,7.5906431 C94.7862896,7.46991919 94.6451616,7.39816498 94.4951919,7.39816498 Z M67.1442559,7.86541751 L67.1442559,25.0476599 C67.1442559,25.305431 66.9351145,25.5145724 66.6773434,25.5145724 L63.1671684,25.5145724 C62.9093973,25.5145724 62.7002559,25.305431 62.7002559,25.0476599 L62.7002559,7.86541751 C62.7002559,7.6073064 62.9093973,7.39816498 63.1671684,7.39816498 L66.6773434,7.39816498 C66.9351145,7.39816498 67.1442559,7.6073064 67.1442559,7.86541751 Z"/>
</svg>
