<svg xmlns="http://www.w3.org/2000/svg" width="81" height="27" viewBox="0 0 81 27">
  <g fill="none" fill-rule="evenodd">
    <polygon fill="#FFF" points="35.152 25.711 28.611 25.711 32.702 .387 39.243 .387"/>
    <path fill="#FFF" d="M58.9618138,1.08353013 C57.6652522,0.568574428 55.6087983,0 53.065999,0 C46.5745637,0 42.0033481,3.46542515 41.9753105,8.41993954 C41.9213919,12.0753693 45.2481671,14.1056838 47.736329,15.3245203 C50.2794877,16.5699862 51.143982,17.3829036 51.143982,18.4930632 C51.1181011,20.1980668 49.0889659,20.983995 47.1964245,20.983995 C44.5720284,20.983995 43.1658323,20.5787957 41.02886,19.6302121 L40.1632874,19.2235734 L39.2434368,24.9366668 C40.7851481,25.6398279 43.6255779,26.2638203 46.5745637,26.2911695 C53.471826,26.2911695 57.9621637,22.879363 58.0153634,17.5995377 C58.0416037,14.7023271 56.284937,12.4823678 52.4976973,10.6683275 C50.1986099,9.50382953 48.7906166,8.71862104 48.7906166,7.52713374 C48.8175758,6.44396347 49.9814978,5.33452362 52.5767779,5.33452362 C54.7137502,5.28018518 56.2838587,5.79442117 57.4733021,6.30901701 L58.0678441,6.57926979 L58.9618138,1.08353013 Z"/>
    <path fill="#FFF" fill-rule="nonzero" d="M67.5843206,16.7398488 C68.1256059,15.2849646 70.2084399,9.65413644 70.2084399,9.65413644 C70.181124,9.70820672 70.7486469,8.17239611 71.0732024,7.2295681 L71.53254,9.41171542 C71.53254,9.41171542 72.7772086,15.4736734 73.0474918,16.7398488 C72.0202718,16.7398488 68.8825426,16.7398488 67.5843206,16.7398488 Z M75.6974892,0.386634845 L70.6135053,0.386634845 C69.0457189,0.386634845 67.8546038,0.84426272 67.178177,2.48785579 L57.4152745,25.7112172 L64.3118092,25.7112172 C64.3118092,25.7112172 65.4472143,22.5855257 65.6912599,21.9123329 C66.4478372,21.9123329 73.1567552,21.9123329 74.1300623,21.9123329 C74.3187573,22.8014487 74.9143149,25.7112172 74.9143149,25.7112172 L81,25.7112172 L75.6974892,0.386634845 Z"/>
    <path fill="#FFF" d="M23.007939,0.386634845 L16.5653839,17.673909 L15.8613758,14.1678475 C14.670282,10.1223092 10.9347584,5.72691748 6.76610979,3.54140914 L12.6672586,25.7112172 L19.6238798,25.7112172 L29.9642005,0.386634845 L23.007939,0.386634845 Z"/>
    <path fill="#FAA61A" d="M10.6128896,0.386634845 L0.107475012,0.386634845 L0,0.896759747 C8.19488038,2.99187735 13.6221899,8.04207818 15.8520286,14.1121718 L13.5682739,2.50888295 C13.1922899,0.896402767 12.0368443,0.439824915 10.6128896,0.386634845 Z"/>
  </g>
</svg>
