<svg xmlns="http://www.w3.org/2000/svg" width="128" height="30" viewBox="0 0 128 30">
  <path fill="#0A97FF" d="M112.91623,3.19744231e-14 C115.25866,3.19744231e-14 117.487307,0.530615275 119.4872,1.47979043 C119.800848,1.61969637 120.116539,1.78714111 120.429151,1.9547343 L119.057861,3.15572234 L117.002097,1.06137901 L113.459788,4.13273319 L111.373814,1.92646807 L104.860037,7.65104708 L109.030363,12.1468024 L107.402316,13.5426403 L111.516772,18.0383956 L109.888575,19.4336545 L115.77405,25.8283243 L119.257411,22.7007197 L122.287092,26.0524499 C121.686643,26.499276 121.029586,26.9469632 120.316223,27.337242 C118.144619,28.5377995 115.630192,29.2345679 112.945089,29.2345679 C104.68801,29.2345679 97.9754033,22.6738935 97.9754033,14.6047319 C97.9462441,6.5900986 104.660037,3.19744231e-14 112.91623,3.19744231e-14 Z M110.1732,13.7105304 L113.744398,10.5829258 L116.94477,14.0732556 L113.372836,17.2005632 L110.1732,13.7105304 Z M112.716516,19.742178 L116.258675,16.5868862 L119.4872,20.0769339 L115.915852,23.2046869 L112.716516,19.742178 Z M107.632091,7.76311733 L111.202253,4.63551276 L114.40189,8.1258425 L110.830541,11.2532986 L107.632091,7.76311733 Z M114.173001,6.08717057 L116.8301,3.74172695 L119.230444,6.33871624 L116.573344,8.71186195 L114.173001,6.08717057 Z M118.915924,16.8376896 L121.572138,14.4920975 L123.972346,17.1161951 L121.315096,19.463242 L118.915924,16.8376896 Z M121.258204,22.1157543 L123.915454,19.7697317 L126.313755,22.3665725 L123.657542,24.7394213 L121.258204,22.1157543 Z M122.344014,10.0523106 L124.115019,8.48843406 L125.714326,10.2203343 L123.943607,11.7836318 L122.344014,10.0523106 Z M120.058476,4.8864646 L121.82963,3.29518291 L123.430109,5.05405779 L121.657634,6.61778585 L120.058476,4.8864646 Z M124.600664,15.2185871 L126.371668,13.654859 L128,15.3861803 L126.200843,16.9494778 L124.600664,15.2185871 Z M116.630236,11.3371026 L119.287486,8.99151054 L121.686658,11.5879209 L119.030579,13.9339435 L116.630236,11.3371026 Z M7.81877093,12.116037 L7.68560376,12.116037 L5.18538786,21.5709517 L3.14181932,21.5709517 L0.0741961071,8.13856386 L2.1945131,8.13856386 L4.31533463,18.1613724 L4.44777468,18.1613724 L6.90885955,8.13856386 L8.59458027,8.13856386 L11.2265833,18.1613724 L11.3591124,18.1613724 L13.2907338,8.13856386 L15.5062593,8.13856386 L12.4378496,21.5709517 L10.3927378,21.5709517 L7.81877093,12.116037 Z M18.1963727,15.8525424 L22.5315622,15.8525424 C22.4375112,13.8638723 21.4712998,13.0688771 20.4492188,13.0688771 C19.2942525,13.0688771 18.4037508,13.9591098 18.1963727,15.8525424 Z M24.0461273,19.4153498 L24.0461273,20.8554512 C23.1942521,21.3478909 22.0587698,21.7270679 20.6946892,21.7270679 C17.5145401,21.7270679 16.2081396,19.7567332 16.2081396,16.7636961 C16.2081396,13.8827839 17.6657666,11.7987434 20.5060085,11.7987434 C22.8721668,11.7987434 24.3310255,13.3343631 24.3310255,16.4217364 L24.3310255,17.1228091 L18.1583991,17.1228091 C18.1583991,19.3955665 19.0856279,20.3999335 21.0366145,20.3999335 C22.0587846,20.3999483 23.0054972,20.0393726 24.0461273,19.4153498 Z M28.7350542,20.2079072 C29.341088,20.4730977 30.0042825,20.5123392 30.4784401,20.5123392 C31.8792478,20.5123392 32.9384269,19.6395701 32.9384269,16.5712265 C32.9384269,14.1651425 32.0675575,13.3883201 30.7994867,13.3883201 C30.0415141,13.3883201 29.4926558,13.5973817 28.7350394,14.0133624 L28.7350394,20.2079072 L28.7350542,20.2079072 Z M28.7549833,12.6117932 C29.3216041,12.3096661 30.2870884,11.9104251 31.3099707,11.9104251 C33.6580846,11.9104251 34.9268826,13.5396718 34.9268826,16.5712265 C34.9268826,20.1142653 33.2224793,21.8383064 30.478455,21.8383064 C29.4741216,21.8383064 27.9215829,21.5161152 26.7848837,20.9085366 L26.7848837,7.68593428 L28.7549981,7.21296766 L28.7549981,12.6117932 L28.7549833,12.6117932 Z M43.4489287,18.7207631 L43.5437662,18.7207631 L47.5949182,8.13019372 L49.9440559,8.13019372 L49.9440559,21.5635862 L47.8991667,21.5635862 L47.8991667,11.824865 L47.7284563,11.824865 L43.8652579,21.5635862 L42.6545704,21.5635862 L38.7905113,12.0525426 L38.6207358,12.0525426 L38.6207358,21.5635862 L36.9164809,21.5635862 L36.9164809,8.13019372 L39.2082205,8.13019372 L43.4489287,18.7207631 Z M58.2987157,16.7631199 C58.2987157,14.2056842 57.2580856,13.1263062 55.9705902,13.1263062 C54.7213504,13.1263062 53.6411589,14.205699 53.6411589,16.7631199 C53.6411589,19.3589253 54.6269432,20.3999335 55.9705902,20.3999335 C57.3142372,20.3999335 58.2987157,19.3589401 58.2987157,16.7631199 Z M51.6538162,16.7631199 C51.6538162,13.4464732 53.471977,11.7987434 55.9705902,11.7987434 C58.4707171,11.7987434 60.2878836,13.4464585 60.2878836,16.7631199 C60.2878836,20.0021552 58.5649907,21.7270679 55.9705902,21.7270679 C53.3767092,21.7270679 51.6538162,20.0021552 51.6538162,16.7631199 Z M61.7855024,13.2017604 C62.6374518,12.6894046 64.4370041,11.7987434 66.6139031,11.7987434 C68.8858621,11.7987434 69.7363721,12.6894046 69.7363721,14.6402663 L69.7363721,21.4995233 L67.7685874,21.4995233 L67.7685874,15.0765769 C67.7685874,13.5802135 67.0314046,13.3150083 66.0645403,13.3150083 C65.3080813,13.3150083 64.341217,13.6565247 63.7547561,13.9974649 L63.7547561,21.4995085 L61.7855024,21.4995233 L61.7855172,13.2017604 L61.7855024,13.2017604 Z M73.9043977,15.8525424 L78.2399434,15.8525424 C78.1467679,13.8638723 77.1800371,13.0688771 76.1575258,13.0688771 C75.0022627,13.0688771 74.113512,13.9591098 73.9043977,15.8525424 Z M79.7543008,19.4153498 L79.7543008,20.8554512 C78.9027817,21.3478909 77.7666612,21.7270679 76.4031594,21.7270679 C73.2240343,21.7270679 71.9167582,19.7567332 71.9167582,16.7636961 C71.9167582,13.8827839 73.3738659,11.7987434 76.2143303,11.7987434 C78.5819429,11.7987434 80.0405048,13.3343631 80.0405048,16.4217364 L80.0405048,17.1228091 L73.8671513,17.1228091 C73.8671513,19.3955665 74.795033,20.3999335 76.7452925,20.3999335 C77.7666464,20.3999483 78.7148281,20.0393726 79.7543008,19.4153498 Z M87.9049954,11.7987434 L89.931484,11.7987434 L86.5041135,21.27025 C85.5560802,23.884967 84.4024198,25.2491711 82.2253724,25.2491711 L82.2253724,23.6966787 C83.5136543,23.6966787 84.3076417,22.6731341 84.7631167,21.27025 L81.1275075,11.7987434 L83.2106522,11.7987434 L85.6340603,18.770539 L85.7476694,18.770539 L87.9049954,11.7987434 Z"/>
</svg>
