<svg xmlns="http://www.w3.org/2000/svg" width="100" height="39" viewBox="0 0 100 39">
  <g fill="none" fill-rule="evenodd">
    <path fill="#D6AB05" d="M96.2243269,15.2382371 C96.2310921,19.523336 96.4804277,28.8620266 96.295739,28.8768107 C90.5681346,30.7791174 83.7769518,32.8428831 78.0491219,34.7463449 C77.268423,34.9916697 75.1809535,35.263336 74.3860478,35.4576093 C74.8426956,35.0662908 76.1345509,33.1097848 76.6182593,32.7538095 C78.8241504,31.2139461 81.1298913,29.7669485 83.3348804,28.226392 C85.818819,26.4818601 87.52003,25.2277167 89.9902129,23.4642426 C90.0154697,20.5298162 89.904242,18.2050682 89.9473134,15.2711038 C91.3246987,15.2745688 94.8460396,15.2167539 96.2243269,15.2382371 Z" transform="rotate(.3 85.375 25.346)"/>
    <path fill="#FC0" d="M78.6277583,10.0931156 C82.8974379,6.76090111 87.126766,3.37606544 91.3627431,0 C91.3634308,5.06986806 91.3696211,10.1404285 91.3593039,15.2102965 C91.3155137,18.1416205 91.3618259,21.0731753 91.3361479,24.0049608 C88.8247334,25.7668479 86.2773238,27.4795756 83.751924,29.2225376 C81.5101302,30.7617078 79.2674192,32.298339 77.0247085,33.8368168 C76.532926,34.1924714 76.0044606,34.4959666 75.5401906,34.8869328 C76.3483644,34.6928345 77.123065,34.3805692 77.9167947,34.1354652 C83.7402312,32.2337165 89.5593118,30.3199665 95.3825192,28.419372 C95.5702906,28.404601 95.5634126,28.2051943 95.5659344,28.0630247 C95.5581394,23.7815515 95.5684564,19.5003091 95.5615784,15.2190667 C97.0401351,15.2370687 98.5196089,15.2216055 99.9988537,15.2259906 C100.000688,22.5246434 99.9997707,29.8221422 99.9997707,37.1207951 C91.5392803,37.1189487 83.0785605,37.124257 74.6180701,37.1182563 C73.247499,37.115487 72.0073822,35.9206626 71.9720748,34.5375096 C71.9711576,29.0999855 71.9729917,23.6626924 71.9711576,18.2251682 C71.9567137,17.4296187 72.0458995,16.6116822 72.3955348,15.8886023 C72.8637024,14.9222647 73.6228126,14.1396397 74.4071425,13.4278688 C75.7433232,12.2277361 77.226236,11.2120085 78.6277583,10.0931156"/>
    <path fill="red" fill-rule="nonzero" d="M7.69478835,27.7635474 L7.69478835,35.6060606 L9.84848485,35.6056065 L9.84848485,15.1515152 L6.63193668,15.1515152 C3.47226352,15.1515152 0.815800861,17.2938491 0.815800861,21.5882777 C0.815800861,24.6515111 1.98262715,26.308994 3.74775183,27.2201329 L0,35.6056065 L2.4951687,35.6056065 L5.90144833,27.7630936 L7.69478835,27.7635474 Z M7.69478835,25.9312822 L6.54662418,25.9312822 C4.67752487,25.9312822 3.13079132,24.8746424 3.13079132,21.5885047 C3.13079132,18.1859208 4.81015916,17.0130622 6.54662418,17.0130622 L7.69478835,17.0128352 L7.69478835,25.9312822 Z"/>
    <path fill="#FFF" fill-rule="nonzero" d="M32.3455954,33.9803033 L31.1872919,33.9803033 L31.1872919,21.4152189 L24.41332,21.4152189 L24.41332,22.6444588 C24.41332,26.4681813 24.2662048,30.921144 22.9311331,33.9803033 L22.0376372,33.9803033 L22.0376372,38.6363636 L24.0602432,38.6363636 L24.0602432,35.8095426 L30.3135646,35.8095426 L30.3135646,38.6363636 L32.3455954,38.6363636 L32.3455954,33.9803033 Z M42.1623261,34.8319082 L41.6421354,33.118498 C41.0628688,33.5251468 40.0417965,34.0961324 38.7754552,34.0961324 C36.9790389,34.0961324 36.0466955,32.3829488 36.0466955,29.1204651 L42.1329029,29.1206918 L42.1329029,27.891452 C42.1329029,23.0125734 40.5426783,21.2121212 38.1081492,21.2121212 C35.0058545,21.2121212 33.7002058,24.5811406 33.7002058,29.2081871 C33.7002058,33.631909 35.5556979,36.0038002 38.5692638,36.0038002 C40.0222578,36.0038002 41.2295229,35.5488705 42.1623261,34.8328149 L42.1623261,34.8319082 Z M18.503651,21.4152189 L18.503651,27.5233373 L15.1464329,27.5233373 L15.1464329,21.4152189 L12.8787879,21.4152189 L12.8787879,35.8099961 L15.1464329,35.8095426 L15.1464329,29.3528035 L18.503651,29.35303 L18.503651,35.8099961 L20.7324483,35.8095426 L20.7324483,21.4152189 L18.503651,21.4152189 Z M50.5557159,35.8095426 L53.0196681,35.8095426 L48.8772219,28.1815914 L52.4994774,21.4152189 L50.2120638,21.4152189 L46.7072705,28.0655356 L46.7072705,21.4152189 L44.4495099,21.4152189 L44.4495099,35.8099961 L46.7072705,35.8095426 L46.7072705,28.6362947 L50.5557159,35.8095426 Z M58.3204178,36.0035735 C59.6554894,36.0035735 60.5781784,35.5776576 61.3636364,34.9194034 L60.8434456,33.2642477 C60.3232551,33.7194042 59.478951,34.1453201 58.3794937,34.1453201 C56.5536545,34.1453201 55.6895816,32.0930358 55.6895816,28.491905 C55.6895816,24.8715067 56.8382306,23.070828 58.4677627,23.070828 C59.3906817,23.070828 60.264409,23.5547717 60.8728688,24.0677294 L61.187098,21.9574173 C60.5489852,21.5509952 59.7931802,21.2121212 58.4971859,21.2121212 C55.080662,21.2121212 53.3138987,24.0971967 53.3138987,28.6077341 C53.3138987,33.5253735 55.1889298,36.0035735 58.3204178,36.0035735 Z M28.9589542,33.9803033 L25.0712015,33.9803033 C26.2885809,30.921144 26.4359261,26.4974219 26.4359261,23.4672764 L26.4359261,23.2156711 L28.9589542,23.2156711 L28.9589542,33.9803033 Z M38.1081492,23.0415873 C39.4137977,23.0415873 39.8162962,24.8420394 39.8162962,27.2912256 L36.0758887,27.2912256 C36.2232339,24.7259835 36.7142312,23.0415873 38.1081492,23.0415873 Z"/>
    <path fill="#1A1919" d="M86.0137701,13.6789987 C84.7815831,13.9575937 83.8078161,14.9419023 83.4430443,16.056507 C83.2794266,16.5824168 83.2700426,17.1981161 83.6150838,17.6641662 C83.932695,18.0892598 84.5351938,18.2474603 85.0655082,18.1574458 C85.9076591,18.0321006 86.6278185,17.5187928 87.1441771,16.9028685 C87.5931639,16.3526548 87.9098127,15.6730452 87.8763673,14.9695818 C87.8720361,14.5717177 87.7002373,14.1637269 87.3619333,13.9121363 C86.989462,13.6261152 86.4687723,13.5907845 86.0137701,13.6789987"/>
  </g>
</svg>
